<svg xmlns="http://www.w3.org/2000/svg" width="84.027" height="27.081" viewBox="0 0 84.027 27.081"><defs><style>.a{fill:#ff7e27;}</style></defs><g transform="translate(-260.996 -421.44)"><g transform="translate(286.003 421.497)"><path class="a" d="M406.329,434.7a.247.247,0,0,1-.247-.247v-11.31a.247.247,0,0,1,.247-.247h4.9c3.182,0,5.159,1.667,5.159,4.351s-1.977,4.335-5.159,4.335h-2.032v2.872a.247.247,0,0,1-.247.247Zm4.75-5.745c.986,0,2.161-.3,2.161-1.708,0-.787-.375-1.725-2.161-1.725h-1.886v3.433Z" transform="translate(-406.082 -422.702)"/><path class="a" d="M470.816,434.7a.247.247,0,0,1-.247-.247v-11.31a.247.247,0,0,1,.247-.247h8.547a.247.247,0,0,1,.247.247v2.1a.247.247,0,0,1-.247.247h-5.7v1.962h5a.247.247,0,0,1,.247.247v2.036a.247.247,0,0,1-.247.247h-5v2.124h5.909a.247.247,0,0,1,.247.247v2.1a.247.247,0,0,1-.247.247Z" transform="translate(-459.454 -422.702)"/><path class="a" d="M528.077,434.7a.247.247,0,0,1-.247-.247v-11.31a.247.247,0,0,1,.247-.247h5.138c3.878,0,6.484,2.372,6.484,5.9s-2.606,5.9-6.484,5.9Zm5.009-2.642a3.266,3.266,0,1,0,0-6.519h-2.145v6.519Z" transform="translate(-506.845 -422.702)"/><path class="a" d="M608.8,434.7a.247.247,0,0,1-.2-.106l-2.108-3.045h-2.031v2.9a.247.247,0,0,1-.247.247H601.6a.247.247,0,0,1-.247-.247v-11.31a.247.247,0,0,1,.247-.247h4.9c3.182,0,5.159,1.667,5.159,4.351a3.9,3.9,0,0,1-2.2,3.67l2.369,3.395a.247.247,0,0,1-.2.388Zm-2.456-5.729c.986,0,2.161-.3,2.161-1.724,0-.787-.375-1.725-2.161-1.725h-1.886v3.449Z" transform="translate(-567.693 -422.702)"/><path class="a" d="M670.8,433.962a6.631,6.631,0,0,1-4.6-1.732,6.113,6.113,0,0,1,0-8.728,6.984,6.984,0,0,1,9.2-.006,6.113,6.113,0,0,1,0,8.741A6.637,6.637,0,0,1,670.8,433.962Zm0-9.468a3.374,3.374,0,1,0,3.292,3.373A3.189,3.189,0,0,0,670.8,424.494Z" transform="translate(-619.844 -421.771)"/></g><g transform="translate(286.003 435.899)"><path class="a" d="M412.5,517.522a6.058,6.058,0,0,1-6.419-6.1c0-3.532,2.72-6.1,6.468-6.1a6.25,6.25,0,0,1,4.921,2.041.247.247,0,0,1-.02.342l-1.681,1.551a.246.246,0,0,1-.347-.012,3.561,3.561,0,0,0-2.745-1.2,3.373,3.373,0,1,0-.032,6.745,3.937,3.937,0,0,0,1.789-.389v-3.162a.247.247,0,0,1,.247-.247h2.391a.247.247,0,0,1,.247.247v4.589a.246.246,0,0,1-.1.2A8.09,8.09,0,0,1,412.5,517.522Z" transform="translate(-406.082 -505.33)"/><path class="a" d="M481.6,517.522a6.632,6.632,0,0,1-4.6-1.732,6.113,6.113,0,0,1,0-8.728,6.984,6.984,0,0,1,9.2-.006,6.113,6.113,0,0,1,0,8.741A6.637,6.637,0,0,1,481.6,517.522Zm0-9.468a3.373,3.373,0,1,0,3.292,3.373A3.189,3.189,0,0,0,481.6,508.053Z" transform="translate(-463.255 -505.33)"/><path class="a" d="M565.035,518.259a.247.247,0,0,1-.247-.246l-.014-5.894-2.872,4.824a.247.247,0,0,1-.212.12h-1.18a.247.247,0,0,1-.211-.119l-2.855-4.693v5.761a.247.247,0,0,1-.247.247h-2.456a.247.247,0,0,1-.247-.247V506.7a.247.247,0,0,1,.247-.247h2.165a.247.247,0,0,1,.211.12l4.02,6.675,3.958-6.674a.247.247,0,0,1,.212-.121h2.149a.247.247,0,0,1,.247.246l.032,11.31a.247.247,0,0,1-.247.247Z" transform="translate(-528.915 -506.261)"/><path class="a" d="M636.063,518.259a.247.247,0,0,1-.247-.247V506.7a.247.247,0,0,1,.247-.247h8.547a.247.247,0,0,1,.247.247v2.1a.247.247,0,0,1-.247.247h-5.7v1.963h5a.247.247,0,0,1,.247.247v2.036a.247.247,0,0,1-.247.247h-5v2.124h5.909a.247.247,0,0,1,.247.247v2.1a.247.247,0,0,1-.247.247Z" transform="translate(-596.219 -506.261)"/><path class="a" d="M695.932,517.522a8.282,8.282,0,0,1-4.756-1.361.246.246,0,0,1-.074-.3l.889-1.971a.246.246,0,0,1,.37-.1,6.386,6.386,0,0,0,3.587,1.132c.723,0,1.935-.125,1.935-.965,0-.637-.857-.882-2.268-1.21-1.919-.446-4.308-1-4.308-3.654a3.381,3.381,0,0,1,1.269-2.674,5.894,5.894,0,0,1,3.744-1.1,7.816,7.816,0,0,1,4.058,1.04.246.246,0,0,1,.1.3l-.808,1.987a.247.247,0,0,1-.351.121,6.155,6.155,0,0,0-3.013-.856c-.71,0-1.9.136-1.9,1.046,0,.668,1.049.907,2.263,1.185,1.922.44,4.313.986,4.313,3.614C700.978,515.5,699.656,517.522,695.932,517.522Z" transform="translate(-641.958 -505.33)"/></g><path class="a" d="M278.5,439.916h-2.634a.719.719,0,0,0-.718.718v2.114a5.9,5.9,0,0,1-4.576,1.607c-5.061-.4-5.261-2.956-5.366-5.177h0c0-.091-.008-.181-.013-.271a4.015,4.015,0,0,1,.006-.481l-.062-6.9-.006.006c.006-.844-.013-4.208,0-4.66.011-.415.021-.785.024-1.078.222,0,.441.005.654.005s.428,0,.646-.006l8.243-.12c.99,0,1.067,2.754,1.108,3.677l0,.034a12.583,12.583,0,0,1-.094,1.986c-.023.18-.05.343-.081.49l-.008,0c-2.138-2.224-7.438-1.814-9.621-.9l.082,5.325a5.315,5.315,0,0,1,3.744-1.661,7.915,7.915,0,0,1,3.85.89c1.967.67,3.583.708,4.552-.02,2.068-1.551,1.71-4.154,1.719-6.1l0-.764a20.9,20.9,0,0,0-.487-4.078c-.851-2.316-1.967-3.022-4.78-3.022l-8.307.121c-.189,0-.377,0-.562,0-1.316,0-2.466-.076-2.595-.085l-1.822-.132h-.026a.382.382,0,0,0-.382.384l.009,1.825.024,7.026c0,.529.005,4.418.007,5l.012-.019c0,1.006,0,2.9,0,3.257,0,2.278-.055,9.614,9.572,9.614a12.653,12.653,0,0,0,3.39-.477,8.867,8.867,0,0,0,4.855-3.235l.385-.5a.2.2,0,0,0,.04-.118v-3.479A.792.792,0,0,0,278.5,439.916Z" transform="translate(0 0)"/></g></svg>