<svg xmlns="http://www.w3.org/2000/svg" xmlns:xlink="http://www.w3.org/1999/xlink" width="46.406" height="41.823" viewBox="0 0 46.406 41.823"><defs><style>.a{fill:#fff;}.b{filter:url(#a);}</style><filter id="a" x="0" y="0" width="46.406" height="41.823" filterUnits="userSpaceOnUse"><feOffset dy="3" input="SourceAlpha"/><feGaussianBlur stdDeviation="3" result="b"/><feFlood flood-opacity="0.161"/><feComposite operator="in" in2="b"/><feComposite in="SourceGraphic"/></filter></defs><g class="b" transform="matrix(1, 0, 0, 1, 0, 0)"><path class="a" d="M54.326,65.28,50.039,85.5c-.323,1.427-1.167,1.782-2.365,1.11l-6.532-4.813-3.152,3.031a1.64,1.64,0,0,1-1.313.641l.469-6.652L49.253,67.874c.526-.469-.114-.729-.818-.26L33.47,77.037l-6.443-2.016c-1.4-.438-1.427-1.4.292-2.074l25.2-9.709C53.685,62.8,54.707,63.5,54.326,65.28Z" transform="translate(-17 -57.11)"/></g></svg>